# xmcd
#
# Track frame offsets:
#   150
#   15652
#   25772
#   35054
#   44216
#   57261
#   68810
#   77326
#   88327
#   98320
#   108463
#   124751
#   139681
#   148428
#   167789
#   185221
#
# Disc length: 2639 seconds
#
# Revision: 0
# Processed by: cddbd v1.5.1PL2 Copyright (c) Steve Scherf et al.
# Submitted via: GXTranscoder 2.0.1939
#
DISCID=e50a4d10
DTITLE=Lee Patterson Singers - Oh happy days
DYEAR=1900
DGENRE=Blues
TTITLE0=oh happy day
TTITLE1=Just a close wlk with thee
TTITLE2=He is got the hole wold
TTITLE3=Swing low swing charriot
TTITLE4=Go tell it on the montain
TTITLE5=Kumbaya
TTITLE6=Wade in the water
TTITLE7=Just as I'm
TTITLE8=Amen
TTITLE9=Michael
TTITLE10=Baby boy
TTITLE11=spirit in the sky
TTITLE12=Rock my soul
TTITLE13=My sweet lord
TTITLE14=Roll jordan roll
TTITLE15=So high
EXTD=
EXTT0=
EXTT1=
EXTT2=
EXTT3=
EXTT4=
EXTT5=
EXTT6=
EXTT7=
EXTT8=
EXTT9=
EXTT10=
EXTT11=
EXTT12=
EXTT13=
EXTT14=
EXTT15=
PLAYORDER=
